<svg width="267" height="267" viewBox="0 0 267 267" fill="none" xmlns="http://www.w3.org/2000/svg">
<path d="M96.0598 191.495C95.8952 193.778 95.0519 195.575 93.5322 196.886C92.0125 198.196 90.0078 198.853 87.5225 198.853C84.8035 198.853 82.6631 197.938 81.1034 196.107C79.5436 194.276 78.7649 191.764 78.7649 188.567V187.269C78.7649 185.229 79.1231 183.434 79.844 181.878C80.5627 180.325 81.5906 179.133 82.9256 178.3C84.2606 177.471 85.8137 177.054 87.5803 177.054C90.0278 177.054 91.9992 177.711 93.4966 179.021C94.9918 180.332 95.8573 182.174 96.091 184.544H91.7188C91.612 183.173 91.2316 182.181 90.5752 181.565C89.9188 180.948 88.922 180.639 87.5803 180.639C86.123 180.639 85.0327 181.162 84.3096 182.205C83.5865 183.249 83.2149 184.869 83.1949 187.065V188.667C83.1949 190.958 83.542 192.634 84.2362 193.693C84.9304 194.752 86.0251 195.282 87.5225 195.282C88.8731 195.282 89.881 194.972 90.5463 194.356C91.2115 193.74 91.592 192.785 91.6899 191.492H96.062L96.0598 191.495Z" fill="#FFC222"/>
<path d="M131.813 188.435C131.813 190.525 131.444 192.356 130.705 193.929C129.967 195.502 128.91 196.717 127.537 197.571C126.162 198.426 124.587 198.853 122.809 198.853C121.031 198.853 119.482 198.43 118.103 197.585C116.723 196.739 115.655 195.533 114.897 193.964C114.138 192.396 113.755 190.591 113.746 188.551V187.503C113.746 185.414 114.122 183.576 114.877 181.987C115.629 180.399 116.692 179.179 118.067 178.329C119.442 177.479 121.013 177.054 122.78 177.054C124.546 177.054 126.12 177.479 127.495 178.329C128.87 179.179 129.933 180.399 130.685 181.987C131.437 183.576 131.816 185.409 131.816 187.487V188.435H131.813ZM127.383 187.474C127.383 185.249 126.985 183.56 126.189 182.403C125.392 181.249 124.255 180.67 122.78 180.67C121.305 180.67 120.181 181.242 119.384 182.381C118.588 183.523 118.185 185.196 118.176 187.401V188.435C118.176 190.602 118.575 192.282 119.371 193.477C120.168 194.672 121.314 195.268 122.809 195.268C124.304 195.268 125.403 194.692 126.189 193.542C126.976 192.391 127.374 190.714 127.383 188.507V187.472V187.474Z" fill="#FFC222"/>
<path d="M163.21 189.893H154.818V198.561H150.446V177.346H164.258V180.886H154.818V186.364H163.21V189.89V189.893Z" fill="#FFC222"/>
<path d="M186.9 198.561H182.528V177.346H186.9V198.561Z" fill="#FFC222"/>
<path d="M80.1177 219.939V207.679H84.521C86.0985 207.679 87.2978 207.968 88.121 208.547C88.9443 209.125 89.3537 209.964 89.3537 211.063C89.3537 211.698 89.2068 212.24 88.9153 212.688C88.6239 213.137 88.1944 213.469 87.6271 213.682C88.2679 213.851 88.7574 214.165 89.1 214.626C89.4427 215.086 89.614 215.647 89.614 216.31C89.614 217.511 89.2335 218.413 88.4726 219.018C87.7116 219.621 86.5858 219.928 85.0928 219.939H80.1177ZM83.0725 212.79H84.6144C85.2597 212.786 85.7202 212.665 85.9961 212.436C86.2698 212.205 86.4078 211.864 86.4078 211.415C86.4078 210.897 86.2587 210.525 85.9605 210.296C85.6624 210.069 85.184 209.953 84.521 209.953H83.0725V212.79ZM83.0725 214.726V217.665H85.0082C85.5422 217.665 85.9516 217.543 86.2364 217.298C86.5235 217.053 86.6659 216.71 86.6659 216.265C86.6659 215.244 86.1586 214.73 85.1417 214.726H83.0703H83.0725Z" fill="#FFC222"/>
<path d="M103.126 217.665H108.271V219.939H100.172V207.679H103.126V217.665Z" fill="#FFC222"/>
<path d="M128.291 214.06C128.291 215.255 128.069 216.314 127.626 217.235C127.183 218.157 126.551 218.864 125.735 219.36C124.918 219.857 123.988 220.106 122.945 220.106C121.901 220.106 120.975 219.865 120.166 219.385C119.358 218.904 118.728 218.219 118.274 217.327C117.823 216.434 117.585 215.411 117.562 214.254V213.564C117.562 212.363 117.783 211.304 118.223 210.387C118.664 209.47 119.296 208.76 120.117 208.26C120.94 207.761 121.874 207.51 122.925 207.51C123.975 207.51 124.889 207.757 125.704 208.251C126.518 208.745 127.15 209.448 127.601 210.36C128.053 211.272 128.282 212.318 128.287 213.497V214.063L128.291 214.06ZM125.285 213.546C125.285 212.329 125.081 211.404 124.676 210.772C124.268 210.14 123.685 209.824 122.929 209.824C121.447 209.824 120.664 210.937 120.579 213.159L120.57 214.06C120.57 215.262 120.768 216.185 121.169 216.831C121.567 217.476 122.159 217.798 122.945 217.798C123.73 217.798 124.266 217.482 124.671 216.846C125.076 216.212 125.281 215.3 125.285 214.109V213.544V213.546Z" fill="#FFC222"/>
<path d="M148.666 215.787C148.625 216.642 148.396 217.394 147.976 218.048C147.555 218.702 146.963 219.209 146.202 219.567C145.441 219.928 144.574 220.106 143.597 220.106C141.986 220.106 140.718 219.581 139.792 218.531C138.867 217.48 138.404 215.998 138.404 214.085V213.48C138.404 212.278 138.613 211.228 139.031 210.327C139.45 209.426 140.053 208.729 140.838 208.24C141.623 207.748 142.533 207.503 143.566 207.503C145.054 207.503 146.249 207.895 147.153 208.678C148.056 209.461 148.57 210.541 148.694 211.916H145.749C145.726 211.17 145.537 210.634 145.183 210.307C144.83 209.982 144.291 209.82 143.566 209.82C142.84 209.82 142.291 210.096 141.948 210.645C141.606 211.195 141.425 212.074 141.41 213.28V214.147C141.41 215.456 141.574 216.39 141.902 216.951C142.229 217.511 142.796 217.792 143.597 217.792C144.276 217.792 144.796 217.632 145.154 217.311C145.513 216.991 145.704 216.484 145.726 215.787H148.666Z" fill="#FFC222"/>
<path d="M163.164 215.375L161.951 216.706V219.939H158.996V207.679H161.951V213.084L162.979 211.526L165.622 207.679H169.276L165.133 213.102L169.276 219.939H165.773L163.164 215.375Z" fill="#FFC222"/>
<path d="M185.28 216.679C185.28 216.248 185.127 215.909 184.822 215.669C184.517 215.429 183.979 215.177 183.209 214.919C182.439 214.661 181.811 214.412 181.322 214.169C179.733 213.388 178.939 212.318 178.939 210.952C178.939 210.273 179.137 209.673 179.533 209.154C179.929 208.636 180.488 208.231 181.213 207.942C181.936 207.652 182.75 207.508 183.654 207.508C184.557 207.508 185.325 207.666 186.023 207.98C186.722 208.293 187.265 208.74 187.652 209.323C188.039 209.904 188.233 210.567 188.233 211.315H185.287C185.287 210.816 185.133 210.427 184.829 210.153C184.521 209.877 184.108 209.742 183.587 209.742C183.066 209.742 182.644 209.857 182.337 210.091C182.032 210.325 181.878 210.621 181.878 210.979C181.878 211.293 182.047 211.577 182.383 211.833C182.719 212.089 183.313 212.352 184.159 212.625C185.007 212.897 185.703 213.19 186.246 213.504C187.57 214.267 188.233 215.32 188.233 216.661C188.233 217.734 187.828 218.575 187.02 219.187C186.212 219.799 185.104 220.104 183.694 220.104C182.701 220.104 181.8 219.926 180.995 219.57C180.189 219.214 179.584 218.724 179.177 218.105C178.77 217.485 178.567 216.77 178.567 215.963H181.531C181.531 216.619 181.7 217.104 182.041 217.416C182.381 217.727 182.931 217.883 183.696 217.883C184.183 217.883 184.57 217.778 184.853 217.567C185.136 217.356 185.278 217.06 185.278 216.679H185.28Z" fill="#FFC222"/>
<path d="M133.068 154.426H186.904V100.59H133.068V154.426Z" fill="#FFC222" stroke="#FFC222" stroke-width="4" stroke-miterlimit="10"/>
<path d="M177.907 126.961C177.726 126.883 177.542 126.816 177.359 126.752L179.882 120.864L146.349 106.491L138.936 123.783C134.966 133.044 139.254 143.768 148.514 147.738C156.624 151.213 165.856 148.356 170.691 141.372C170.965 141.53 171.247 141.672 171.543 141.799C175.642 143.555 180.387 141.657 182.143 137.561C183.899 133.462 182.003 128.718 177.904 126.961H177.907ZM178.089 136.45C177.19 138.549 174.76 139.519 172.665 138.62C172.549 138.571 172.44 138.515 172.333 138.457C172.377 138.357 172.426 138.259 172.471 138.157L175.294 131.569C175.555 131.644 175.811 131.736 176.06 131.842C178.158 132.741 178.99 134.352 178.091 136.45H178.089Z" fill="#2D7161" stroke="#2D7161" stroke-width="4" stroke-miterlimit="10"/>
<path d="M179.878 120.853C180.618 119.126 173.711 114.509 164.45 110.54C155.19 106.571 147.083 104.753 146.342 106.48C145.602 108.207 152.509 112.825 161.77 116.794C171.03 120.763 179.137 122.58 179.878 120.853Z" fill="#FFC222" stroke="#2D7161" stroke-width="4" stroke-miterlimit="10"/>
<path d="M133.117 46.894H79.2812V100.73H133.117V46.894Z" fill="#FFC222" stroke="#FFC222" stroke-width="4" stroke-miterlimit="10"/>
<path d="M122.711 80.6919C125.659 78.3824 129.008 76.1751 132.999 73.8322C129.008 71.4893 125.659 69.2821 122.711 66.9726C123.163 63.2546 123.968 59.3275 125.136 54.8463C120.657 56.0122 116.728 56.8199 113.01 57.2716C110.7 54.3234 108.493 50.9748 106.15 46.9832C103.807 50.9748 101.6 54.3234 99.2907 57.2716C95.5727 56.8199 91.6456 56.0144 87.1644 54.8463C88.3303 59.3252 89.138 63.2546 89.5897 66.9726C86.6415 69.2821 83.2929 71.4893 79.3013 73.8322C83.2929 76.1751 86.6415 78.3824 89.5897 80.6919C89.138 84.4099 88.3325 88.337 87.1644 92.8182C91.6433 91.6523 95.5727 90.8446 99.2907 90.3929C101.6 93.3388 103.807 96.6874 106.15 100.681C108.493 96.6897 110.7 93.341 113.01 90.3929C116.728 90.8446 120.655 91.65 125.136 92.8182C123.97 88.3392 123.163 84.4099 122.711 80.6919Z" fill="#2D7161"/>
<path d="M106.15 87.3334C113.606 87.3334 119.65 81.2896 119.65 73.8343C119.65 66.3789 113.606 60.3352 106.15 60.3352C98.6951 60.3352 92.6514 66.3789 92.6514 73.8343C92.6514 81.2896 98.6951 87.3334 106.15 87.3334Z" fill="#FFC222"/>
<path d="M79.2791 154.426H133.115V100.59H79.2791V154.426Z" fill="#2D7161"/>
<mask id="mask0_2687_333" style="mask-type:luminance" maskUnits="userSpaceOnUse" x="79" y="100" width="55" height="55">
<path d="M79.2791 154.426H133.115V100.59H79.2791V154.426Z" fill="white"/>
</mask>
<g mask="url(#mask0_2687_333)">
<path d="M106.199 218.435L147.644 176.988L109.568 128.623L104.079 127.034L64.752 176.988L106.199 218.435Z" fill="#FFC222"/>
<path d="M105.648 125.047C106.582 124.119 106.578 122.464 106.019 121.229C104.902 118.759 100.641 116.937 101.104 113.858C101.389 111.964 103.309 110.229 102.84 108.235C102.432 106.504 100.425 105.772 98.9503 105.203C92.856 102.846 91.2807 95.1389 94.6649 89.9235C98.4897 84.025 107.407 83.9783 112.632 88.1101C116.154 90.898 118.094 95.5638 117.585 100.025C117.249 102.969 116.04 105.013 114.116 107.158C112.378 109.096 109.808 110.049 108.173 112.071C107.234 113.233 106.604 114.817 106.92 116.323C107.203 117.667 108.177 118.728 108.549 120.046C109.112 122.035 107.463 124.364 105.648 125.045V125.047Z" fill="#FFC222"/>
</g>
<path d="M79.2791 154.426H133.115V100.59H79.2791V154.426Z" stroke="#FFC222" stroke-width="4" stroke-miterlimit="10"/>
<path d="M186.904 46.894H133.068V100.73H186.904V46.894Z" fill="#2D7161"/>
<mask id="mask1_2687_333" style="mask-type:luminance" maskUnits="userSpaceOnUse" x="133" y="46" width="54" height="55">
<path d="M186.904 46.894H133.068V100.73H186.904V46.894Z" fill="white"/>
</mask>
<g mask="url(#mask1_2687_333)">
<path d="M160.359 73.193C166.739 69.111 167.974 59.6477 163.117 52.0561C158.261 44.4645 149.151 41.6195 142.77 45.7016C136.39 49.7836 135.155 59.2469 140.012 66.8385C144.869 74.4301 153.978 77.2751 160.359 73.193Z" fill="#FFC222"/>
<mask id="mask2_2687_333" style="mask-type:luminance" maskUnits="userSpaceOnUse" x="137" y="43" width="30" height="33">
<path d="M160.359 73.193C166.739 69.111 167.974 59.6477 163.117 52.0561C158.261 44.4645 149.151 41.6195 142.77 45.7016C136.39 49.7836 135.155 59.2469 140.012 66.8385C144.869 74.4301 153.978 77.2751 160.359 73.193Z" fill="white"/>
</mask>
<g mask="url(#mask2_2687_333)">
<path d="M166.132 70.083C166.072 69.925 165.916 69.8271 165.749 69.836C161.462 70.0718 156.865 67.453 154.311 63.3145C152.818 60.8982 152.037 58.0924 151.28 55.3779C151.035 54.5013 150.784 53.5935 150.51 52.7102C149.046 47.9798 146.928 44.7869 144.218 43.2205C144.078 43.1404 143.902 43.1538 143.777 43.2562L142.883 43.9904C142.789 44.0661 142.738 44.1817 142.741 44.3041C142.745 44.4243 142.805 44.5377 142.903 44.6067C145.333 46.34 147.055 49.544 148.023 54.1253C148.21 55.0064 148.374 55.912 148.532 56.7908C149.037 59.5765 149.558 62.4557 150.88 65.0856C153.178 69.6602 157.848 72.9399 162.499 73.2425C162.507 73.2425 162.516 73.2425 162.523 73.2425C162.612 73.2425 162.699 73.2113 162.768 73.1557L166.016 70.5235C166.148 70.4167 166.194 70.2387 166.134 70.083H166.132Z" fill="#2D7161"/>
</g>
<path d="M181.217 93.628C185.313 85.6001 183.164 76.3017 176.417 72.8594C169.669 69.4171 160.88 73.1345 156.784 81.1623C152.688 89.1901 154.838 98.4885 161.585 101.931C168.332 105.373 177.122 101.656 181.217 93.628Z" fill="#FFC222"/>
<mask id="mask3_2687_333" style="mask-type:luminance" maskUnits="userSpaceOnUse" x="154" y="71" width="30" height="33">
<path d="M181.217 93.628C185.313 85.6001 183.164 76.3017 176.417 72.8594C169.669 69.4171 160.88 73.1345 156.784 81.1623C152.688 89.1901 154.838 98.4885 161.585 101.931C168.332 105.373 177.122 101.656 181.217 93.628Z" fill="white"/>
</mask>
<g mask="url(#mask3_2687_333)">
<path d="M181.618 74.5062L180.623 73.9166C180.518 73.8543 180.392 73.8454 180.28 73.8899C180.169 73.9344 180.085 74.03 180.051 74.1457C179.25 77.0204 176.827 79.7327 172.851 82.2069C172.086 82.6831 171.289 83.1459 170.519 83.5953C168.074 85.0193 165.544 86.4923 163.524 88.6305C160.008 92.3529 158.52 97.8598 159.822 102.334C159.848 102.428 159.911 102.508 159.995 102.559L163.577 104.715C163.64 104.753 163.709 104.771 163.778 104.771C163.869 104.771 163.96 104.737 164.033 104.675C164.16 104.564 164.203 104.384 164.136 104.23C162.449 100.283 163.344 95.0652 166.363 91.2515C168.125 89.0243 170.497 87.3311 172.789 85.6935C173.53 85.164 174.295 84.6166 175.032 84.0603C178.977 81.0699 181.257 77.9905 181.805 74.9067C181.833 74.7465 181.76 74.5863 181.62 74.504L181.618 74.5062Z" fill="#2D7161"/>
</g>
</g>
<path d="M186.904 46.894H133.068V100.73H186.904V46.894Z" stroke="#FFC222" stroke-width="4" stroke-miterlimit="10"/>
</svg>
