<?xml version="1.0" encoding="UTF-8"?><svg id="Capa_2" xmlns="http://www.w3.org/2000/svg" viewBox="0 0 525.61 184.54"><defs><style>.cls-1{fill:#f2f2f2;stroke-width:0px;}</style></defs><g id="Capa_1-2"><path class="cls-1" d="m78.19,27.03c-.09-.09-.21-.14-.36-.14h-9.98c-.14,0-.27.05-.36.14-.09.09-.14.21-.14.36v40.23c0,1.31-.46,2.43-1.37,3.34-.92.92-2.03,1.37-3.34,1.37H15.68c-1.28,0-2.38-.46-3.32-1.37-.93-.91-1.39-2.02-1.39-3.34v-7.31c0-.16-.13-.29-.29-.29H.29c-.16,0-.29.13-.29.29v5.78c0,4.31,1.54,7.99,4.61,11.04,3.07,3.05,6.75,4.57,11.07,4.57h46.97c4.35,0,8.05-1.52,11.1-4.57,3.05-3.05,4.57-6.74,4.57-11.04V27.39c0-.15-.05-.27-.14-.36Z"/><path class="cls-1" d="m151.8,26.9c4.35,0,8.05,1.53,11.1,4.58,3.05,3.05,4.58,6.75,4.58,11.1v23.46c0,4.35-1.53,8.05-4.58,11.1-3.05,3.05-6.75,4.58-11.1,4.58h-46.97c-4.31,0-8-1.53-11.07-4.58-3.07-3.05-4.6-6.75-4.6-11.1v-23.46c0-4.35,1.53-8.05,4.6-11.1,3.07-3.05,6.76-4.58,11.07-4.58h46.97Zm4.71,14.09c0-1.28-.46-2.38-1.37-3.32-.91-.93-2.03-1.4-3.34-1.4h-46.97c-1.28,0-2.38.47-3.32,1.4-.93.93-1.4,2.04-1.4,3.32v26.64c0,1.28.47,2.38,1.4,3.32.93.93,2.04,1.4,3.32,1.4h46.97c1.32,0,2.43-.47,3.34-1.4.91-.93,1.37-2.04,1.37-3.32v-26.64Z"/><path class="cls-1" d="m257.83,81.05c.07.15.06.29-.03.44-.09.15-.21.22-.36.22h-11.13c-.18,0-.33-.09-.44-.27l-8.17-17.21c-.67-1.3-1.6-2.35-2.79-3.14-1.34-.89-2.95-1.3-4.57-1.3h-40.81c-.16,0-.29.13-.29.29v21.14c0,.15-.05.27-.14.36s-.21.14-.36.14h-9.98c-.15,0-.27-.05-.36-.14-.09-.09-.14-.21-.14-.36V27.39c0-.15.05-.26.14-.36.09-.09.21-.14.36-.14h9.98c.15,0,.26.05.36.14.09.09.14.21.14.36v22.73c0,.16.13.29.29.29h40.78c1.61,0,3.23-.39,4.57-1.28,1.2-.8,2.14-1.87,2.81-3.21l8.17-17.15c.11-.18.26-.27.44-.27h11.13c.15,0,.26.06.36.19.09.13.1.28.03.47l-9.48,19.95c-1.09,2.24-2.52,4.16-4.32,5.77-.12.11-.13.3,0,.41,1.79,1.64,3.23,3.58,4.32,5.82l9.48,19.95Z"/><path class="cls-1" d="m279.74,49.3c0,.16.13.29.29.29h58.74c.15,0,.26.05.36.14.09.09.14.21.14.36v8.44c0,.15-.05.27-.14.36-.09.09-.21.14-.36.14h-58.74c-.16,0-.29.13-.29.29v8.32c0,1.28.46,2.38,1.37,3.32.91.93,2.03,1.4,3.34,1.4h62.15c.14,0,.26.05.36.14.09.09.14.19.14.3v8.44c0,.15-.05.27-.14.36-.09.09-.21.14-.36.14h-62.15c-4.35,0-8.05-1.53-11.1-4.58-3.05-3.05-4.58-6.75-4.58-11.1v-23.46c0-4.35,1.53-8.05,4.58-11.1,3.05-3.05,6.75-4.58,11.1-4.58h62.15c.14,0,.26.05.36.14.09.09.14.21.14.36v8.44c0,.11-.05.21-.14.3-.09.09-.21.14-.36.14h-62.15c-1.32,0-2.43.47-3.34,1.4-.91.93-1.37,2.04-1.37,3.32v8.32Z"/><path class="cls-1" d="m436.19,48.05c0,3.18-.84,6.04-2.52,8.58-1.68,2.54-3.91,4.43-6.69,5.67l.22.44,8.71,18.31c.04.18.02.34-.05.47-.07.13-.2.19-.38.19h-11.13c-.07,0-.16-.02-.25-.05-.09-.04-.16-.09-.19-.16l-8.36-17.6c-.05-.1-.15-.16-.26-.16h-46.12c-.16,0-.29.13-.29.29v17.25c0,.11-.05.21-.14.3-.09.09-.21.14-.36.14h-10.03c-.11,0-.21-.05-.3-.14-.09-.09-.14-.19-.14-.3v-26.47c0-.15.05-.26.14-.36.09-.09.19-.14.3-.14h62.21c1.28,0,2.37-.46,3.29-1.37.91-.91,1.37-2.01,1.37-3.29v-8.6c0-1.32-.46-2.43-1.37-3.34-.91-.91-2.01-1.37-3.29-1.37h-62.21c-.11,0-.21-.05-.3-.14-.09-.09-.14-.21-.14-.36v-8.44c0-.15.05-.26.14-.36.09-.09.19-.14.3-.14h62.21c4.31,0,7.99,1.53,11.04,4.6,3.05,3.07,4.58,6.76,4.58,11.07v5.48Z"/><path class="cls-1" d="m457.98,44.87c0,1.32.46,2.43,1.37,3.34.91.91,2.01,1.37,3.29,1.37h47.03c4.31,0,7.99,1.53,11.04,4.58,3.05,3.05,4.58,6.75,4.58,11.1v.77c0,4.31-1.53,8-4.58,11.07-3.05,3.07-6.73,4.6-11.04,4.6h-59.08c-.11,0-.21-.05-.3-.14-.09-.09-.14-.21-.14-.36v-8.44c0-.15.04-.26.14-.36.09-.09.19-.14.3-.14h59.08c1.28,0,2.38-.46,3.29-1.37.91-.91,1.37-2.01,1.37-3.29v-3.95c0-1.28-.46-2.38-1.37-3.32-.91-.93-2.01-1.4-3.29-1.4h-47.03c-4.31,0-7.99-1.53-11.04-4.58-3.05-3.05-4.58-6.73-4.58-11.04v-.45c0-4.33,1.64-8.56,4.74-11.58s6.64-4.41,10.88-4.41h59.08c.11,0,.21.05.3.14.09.09.14.19.14.3v8.5c0,.11-.05.21-.14.3-.09.09-.19.14-.3.14h-59.08c-1.28,0-2.38.46-3.29,1.37-.91.91-1.37,2.03-1.37,3.34v3.89Z"/><path class="cls-1" d="m175.15,155.56c0,.15-.05.27-.14.36-.09.09-.19.14-.3.14h-20.5c-4.2-.15-7.51-1.94-9.92-5.37l-25.49-37.93c-1.06-1.43-2.38-2.14-3.95-2.14h-31.62c-.15,0-.27-.05-.36-.14-.09-.09-.14-.19-.14-.3v-8.5c0-.11.04-.21.14-.3.09-.09.21-.14.36-.14h34.58c3.98,0,7.27,1.77,9.87,5.32l25.54,37.98c1.02,1.39,2.34,2.08,3.95,2.08h7.01v-44.94c0-.11.05-.21.14-.3.09-.09.21-.14.36-.14h10.03c.11,0,.21.05.3.14.09.09.14.19.14.3v53.88Zm-67.8-31.62c.14,0,.26.05.36.14.09.09.14.21.14.36v31.13c0,.15-.05.27-.14.36-.09.09-.21.14-.36.14h-10.03c-.15,0-.26-.05-.33-.14-.07-.09-.11-.21-.11-.36v-31.13c0-.15.05-.26.14-.36.09-.09.19-.14.3-.14h10.03Z"/><path class="cls-1" d="m196.94,123.94h59.03c.15,0,.26.05.36.14.09.09.14.21.14.36v8.44c0,.15-.05.27-.14.36-.09.09-.21.14-.36.14h-59.03v8.61c0,1.28.46,2.38,1.37,3.32.91.93,2.03,1.4,3.34,1.4h62.15c.14,0,.26.05.36.14.09.09.14.19.14.3v8.44c0,.15-.05.27-.14.36-.09.09-.21.14-.36.14h-62.15c-4.35,0-8.05-1.53-11.1-4.58-3.05-3.05-4.58-6.75-4.58-11.1v-23.46c0-4.35,1.53-8.05,4.58-11.1,3.05-3.05,6.75-4.58,11.1-4.58h62.15c.14,0,.26.05.36.14.09.09.14.21.14.36v8.44c0,.11-.05.21-.14.3-.09.09-.21.14-.36.14h-62.15c-1.32,0-2.43.47-3.34,1.4-.91.93-1.37,2.04-1.37,3.32v8.61Z"/><path class="cls-1" d="m337.78,101.25c4.31,0,8,1.53,11.07,4.6,3.07,3.07,4.6,6.76,4.6,11.07v23.46c0,4.35-1.53,8.05-4.6,11.1-3.07,3.05-6.76,4.58-11.07,4.58h-46.97c-4.35,0-8.05-1.53-11.1-4.58-3.05-3.05-4.58-6.75-4.58-11.1v-23.46c0-4.31,1.53-8,4.58-11.07,3.05-3.07,6.75-4.6,11.1-4.6h46.97Zm-46.97,45.44h7.73l20.55-36.01h-28.28c-1.32,0-2.43.46-3.34,1.37s-1.37,2.01-1.37,3.29v26.64c0,1.32.46,2.43,1.37,3.34.91.91,2.03,1.37,3.34,1.37Zm51.69-4.71v-26.64c0-1.28-.47-2.37-1.4-3.29-.93-.91-2.04-1.37-3.32-1.37h-7.73l-20.55,36.01h28.28c1.28,0,2.38-.46,3.32-1.37.93-.91,1.4-2.03,1.4-3.34Z"/><path class="cls-1" d="m431.59,101.74c0-.15.04-.26.14-.36.09-.09.21-.14.36-.14h10.03c.11,0,.21.05.3.14.09.09.14.21.14.36v53.88c0,.11-.05.21-.14.3-.09.09-.19.14-.3.14h-20.5c-4.2-.11-7.51-1.88-9.92-5.32l-25.49-37.98c-1.06-1.39-2.38-2.08-3.95-2.08h-7.02v44.94c0,.11-.05.21-.14.3-.09.09-.21.14-.36.14h-10.03c-.11,0-.21-.05-.3-.14-.09-.09-.14-.19-.14-.3v-53.88c0-.15.04-.26.14-.36.09-.09.19-.14.3-.14h20.5c4.2.15,7.51,1.94,9.92,5.37l25.49,37.93c1.02,1.43,2.34,2.14,3.95,2.14h7.02v-44.94Z"/><path class="cls-1" d="m21.11,135.91v-8.81c0-2.48,1.23-3.72,3.7-3.72h5.47c2.47,0,3.7,1.24,3.7,3.72v8.81c0,2.48-1.23,3.72-3.7,3.72h-5.47c-2.47,0-3.7-1.24-3.7-3.72Zm2.38.24c0,.88.45,1.32,1.34,1.32h5.42c.9,0,1.34-.44,1.34-1.32v-9.28c0-.88-.45-1.32-1.34-1.32h-5.42c-.9,0-1.34.44-1.34,1.32v9.28Z"/><path class="cls-1" d="m40.24,139.63v-16.26h10.75v2.17h-8.37v5.23h7.66v2.17h-7.66v6.69h-2.38Z"/><path class="cls-1" d="m480.11,136.34c-.05,0-.1-.05-.14-.14-.04-.09-.05-.21-.05-.36v-8.44c0-.15.02-.26.05-.36.04-.09.08-.14.14-.14h18.44c.05,0,.1.05.12.14.03.09.04.21.04.36v8.44c0,.15-.01.27-.04.36-.03.09-.07.14-.12.14h-18.44Z"/><path class="cls-1" d="m5.39,184.54c-1.54,0-2.82-.05-3.84-.14-1.02-.09-1.53-.21-1.53-.36v-8.44c0-.15.51-.26,1.53-.36,1.02-.09,2.3-.14,3.84-.14h515.62c1.54,0,2.68.05,3.45.14.77.09,1.15.21,1.15.36v8.44c0,.15-.38.27-1.15.36-.76.09-1.91.14-3.45.14H5.39Z"/><path class="cls-1" d="m5.39,9.43c-1.54,0-2.82-.05-3.84-.14-1.02-.09-1.53-.21-1.53-.36V.49C.02.35.53.23,1.55.14c1.02-.09,2.3-.14,3.84-.14h515.62c1.54,0,2.68.05,3.45.14.77.09,1.15.21,1.15.36v8.44c0,.15-.38.27-1.15.36-.76.09-1.91.14-3.45.14H5.39Z"/></g></svg>